<?xml version="1.0" encoding="utf-8"?>
<!-- Generator: Adobe Illustrator 27.5.0, SVG Export Plug-In . SVG Version: 6.00 Build 0)  -->
<svg version="1.1" xmlns="http://www.w3.org/2000/svg" xmlns:xlink="http://www.w3.org/1999/xlink" x="0px" y="0px"
	 viewBox="0 0 500 500" style="enable-background:new 0 0 500 500;" xml:space="preserve">
<g id="BACKGROUND">
	<rect style="fill:#26213D;" width="500" height="500"/>
</g>
<g id="OBJECTS">
	<g>
		<g style="opacity:0.18;">
			<path d="M187.415,119.83h70.172v25.201c0,0.225-0.119,0.359-0.218,0.432c-0.066,0.048-0.163,0.093-0.282,0.099
				c-0.04-0.003-0.081-0.008-0.125-0.022c-1.942-0.612-3.967-0.922-6.019-0.922c-0.013,0-0.025,0.001-0.038,0.001
				c-0.006,0-0.011-0.001-0.017-0.001c-5.688,0-11.13,2.431-14.929,6.669c-3.796,4.234-5.616,9.931-4.991,15.628
				c0.997,9.104,8.315,16.521,17.401,17.636c0.737,0.09,1.471,0.14,2.202,0.152c2.159,0.041,4.285-0.261,6.342-0.904
				c0.055-0.017,0.105-0.023,0.153-0.026c0.143,0.006,0.252,0.062,0.312,0.107c0.138,0.101,0.208,0.241,0.208,0.415v25.144h-25.144
				c-1.683,0-3.219,0.776-4.215,2.13c-0.63,0.857-0.975,1.881-1.017,2.926c-0.031,0.618,0.045,1.244,0.234,1.848
				c0.486,1.557,0.715,3.168,0.689,4.808c-0.011,0.546-0.049,1.096-0.117,1.648c-0.851,6.938-6.515,12.526-13.468,13.288
				c-4.432,0.487-8.681-0.87-11.967-3.815c-3.236-2.901-5.093-7.053-5.1-11.395c0.003-1.56,0.239-3.098,0.703-4.571
				c0.19-0.604,0.269-1.222,0.24-1.831c-0.038-1.027-0.38-2.028-1.013-2.891c-1-1.363-2.544-2.145-4.234-2.145h-25.2v-70.172
				C167.978,128.549,176.698,119.83,187.415,119.83z M326.389,209.166c0.073,0.1,0.207,0.218,0.432,0.218h25.146v-70.118
				c0-10.718-8.719-19.437-19.437-19.437h-70.172v25.201c0,1.691-0.782,3.235-2.145,4.235c-0.863,0.633-1.864,0.975-2.891,1.013
				c-0.608,0.029-1.226-0.05-1.831-0.24c-1.474-0.464-3.013-0.7-4.574-0.702c-4.34,0.008-8.491,1.865-11.391,5.099
				c-2.945,3.286-4.3,7.536-3.815,11.967c0.762,6.953,6.35,12.617,13.287,13.468c0.551,0.068,1.1,0.106,1.645,0.117
				c1.641,0.027,3.253-0.203,4.811-0.69c0.604-0.188,1.23-0.264,1.848-0.233c1.045,0.042,2.07,0.387,2.926,1.017
				c1.354,0.996,2.13,2.532,2.13,4.215v25.089h25.199c0.174,0,0.314-0.07,0.415-0.208c0.004-0.006,0.01-0.017,0.015-0.024
				c0.038-0.097,0.061-0.226,0.011-0.387c-0.854-2.738-1.107-5.594-0.751-8.49c0.281-2.292,0.965-4.469,1.974-6.463
				c2.974-5.967,8.867-10.297,15.716-11.047c5.697-0.626,11.395,1.196,15.629,4.991c4.238,3.799,6.669,9.241,6.669,14.929
				c0,2.049-0.31,4.074-0.922,6.018C326.247,208.911,326.319,209.07,326.389,209.166z M352.022,284.327V214.21h-25.255
				c-1.692,0-3.236-0.782-4.235-2.145c-0.997-1.359-1.279-3.061-0.772-4.668c0.467-1.483,0.703-3.031,0.703-4.602
				c0-4.35-1.859-8.511-5.101-11.418c-3.285-2.945-7.534-4.3-11.967-3.815c-5.194,0.569-9.667,3.833-11.954,8.34
				c-0.744,1.496-1.25,3.125-1.46,4.838c-0.273,2.227-0.081,4.417,0.574,6.511c0.439,1.408,0.268,2.937-0.449,4.201
				c-0.116,0.216-0.243,0.427-0.39,0.627c-0.996,1.353-2.532,2.129-4.214,2.129h-25.144v25.089c0,0.174,0.07,0.314,0.208,0.415
				c0.086,0.064,0.268,0.159,0.52,0.081c2.737-0.854,5.592-1.107,8.49-0.752c9.086,1.115,16.404,8.532,17.401,17.636
				c0.079,0.723,0.118,1.445,0.12,2.165c0.024,4.973-1.784,9.807-5.111,13.519c-3.8,4.238-9.241,6.669-14.929,6.669
				c-2.052,0-4.077-0.31-6.019-0.922c-0.207-0.065-0.364,0.006-0.461,0.077c-0.099,0.073-0.218,0.207-0.218,0.432v25.146h70.227
				C343.302,303.764,352.022,295.045,352.022,284.327z M167.978,284.382c0,10.718,8.719,19.437,19.437,19.437h70.227v-25.2v-0.055
				c0-1.691,0.782-3.234,2.145-4.234c1.359-0.997,3.059-1.279,4.667-0.773c1.484,0.467,3.032,0.704,4.603,0.704
				c4.35,0,8.511-1.859,11.418-5.101c2.57-2.868,3.928-6.469,3.909-10.285c-0.005-0.539-0.035-1.082-0.095-1.628
				c-0.761-6.953-6.349-12.618-13.287-13.468c-2.228-0.275-4.418-0.081-6.511,0.573c-1.607,0.502-3.371,0.209-4.719-0.783
				c-1.354-0.996-2.13-2.532-2.13-4.215v-0.055v-25.09h-25.198c-0.174,0-0.314,0.07-0.416,0.208c-0.044,0.06-0.1,0.169-0.106,0.312
				c0.003,0.048,0.009,0.098,0.026,0.153c0.641,2.053,0.943,4.174,0.904,6.328c-0.011,0.735-0.061,1.475-0.152,2.217
				c-1.115,9.086-8.531,16.404-17.636,17.401c-0.737,0.081-1.474,0.121-2.207,0.121c-4.94,0-9.734-1.807-13.422-5.112
				c-4.238-3.799-6.669-9.241-6.669-14.929c0-0.008,0.001-0.015,0.001-0.023c0-0.011-0.001-0.021-0.001-0.032
				c0-2.053,0.31-4.078,0.922-6.019c0.014-0.044,0.019-0.085,0.022-0.125c-0.005-0.119-0.051-0.216-0.099-0.282
				c-0.073-0.1-0.207-0.218-0.432-0.218h-25.201V284.382z"/>
			<path d="M257.642,303.819v-25.2v-0.055c0-1.691,0.782-3.234,2.145-4.234c1.359-0.997,3.059-1.279,4.667-0.773
				c1.484,0.467,3.032,0.704,4.603,0.704c4.35,0,8.511-1.859,11.418-5.101c2.57-2.868,3.928-6.469,3.909-10.285
				c-0.005-0.539-0.035-1.082-0.095-1.628c-0.761-6.953-6.349-12.618-13.287-13.468c-2.228-0.275-4.418-0.081-6.511,0.573
				c-1.607,0.502-3.371,0.209-4.719-0.783c-0.971-0.714-1.639-1.709-1.942-2.835c-23.586,13.814-53.051,25.461-89.851,32.784v10.864
				c0,10.718,8.719,19.437,19.437,19.437H257.642z"/>
			<path d="M322.532,212.065c-0.997-1.359-1.279-3.061-0.772-4.668c0.467-1.483,0.703-3.031,0.703-4.602
				c0-4.35-1.859-8.511-5.101-11.418c-0.403-0.361-0.822-0.697-1.252-1.01c-12.833,16.456-30.222,33.125-53.752,47.644v1.288
				c0,0.174,0.07,0.314,0.208,0.415c0.086,0.064,0.268,0.159,0.52,0.081c2.737-0.854,5.592-1.107,8.49-0.752
				c9.086,1.115,16.404,8.532,17.401,17.636c0.079,0.723,0.118,1.445,0.12,2.165c0.024,4.973-1.784,9.807-5.111,13.519
				c-3.8,4.238-9.241,6.669-14.929,6.669c-2.052,0-4.077-0.31-6.019-0.922c-0.207-0.065-0.364,0.006-0.461,0.077
				c-0.099,0.073-0.218,0.207-0.218,0.432v25.146h70.227c10.717,0,19.437-8.719,19.437-19.437V214.21h-25.255
				C325.075,214.21,323.531,213.428,322.532,212.065z"/>
			<path d="M320.565,187.758c4.238,3.799,6.669,9.241,6.669,14.929c0,2.05-0.31,4.075-0.922,6.018
				c-0.065,0.207,0.006,0.365,0.077,0.462c0.073,0.1,0.207,0.218,0.432,0.218h25.146v-70.118c0-4.386-1.478-8.424-3.937-11.68
				c-4.126,14.892-12.44,36.538-28.998,58.932C319.561,186.905,320.074,187.317,320.565,187.758z"/>
			<path d="M212.81,232.227c-6.512,0-11.791-5.279-11.791-11.791v-27.831c0-21.909,17.825-39.734,39.734-39.734h7.695
				c6.512,0,11.791,5.279,11.791,11.791c0,6.512-5.279,11.791-11.791,11.791h-7.695c-8.907,0-16.153,7.246-16.153,16.152v27.831
				C224.601,226.948,219.322,232.227,212.81,232.227z"/>
			<ellipse transform="matrix(0.9307 -0.3658 0.3658 0.9307 -45.1584 80.757)" cx="190.537" cy="159.551" rx="13.756" ry="13.756"/>
			<circle cx="207.758" cy="281.255" r="13.756"/>
			<path d="M268.584,270.832h-27.831c-21.91,0-39.734-17.824-39.734-39.734v-7.695c0-6.512,5.279-11.791,11.791-11.791
				c6.512,0,11.791,5.279,11.791,11.791v7.695c0,8.906,7.246,16.153,16.153,16.153h27.831c6.512,0,11.791,5.279,11.791,11.791
				C280.375,265.553,275.096,270.832,268.584,270.832z"/>
			<circle cx="329.463" cy="264.034" r="13.756"/>
			<path d="M279.246,270.832h-7.695c-6.512,0-11.791-5.279-11.791-11.791c0-6.512,5.279-11.791,11.791-11.791h7.695
				c8.907,0,16.154-7.246,16.154-16.153v-27.831c0-6.512,5.279-11.791,11.791-11.791c6.512,0,11.791,5.279,11.791,11.791v27.831
				C318.981,253.008,301.156,270.832,279.246,270.832z"/>
			<ellipse transform="matrix(0.8278 -0.561 0.561 0.8278 -26.0848 199.6696)" cx="312.242" cy="142.33" rx="13.756" ry="13.756"/>
			<path d="M307.19,212.091c-6.512,0-11.791-5.279-11.791-11.791v-7.695c0-8.907-7.246-16.152-16.154-16.152h-27.83
				c-6.512,0-11.791-5.279-11.791-11.791c0-6.512,5.279-11.791,11.791-11.791h27.83c21.91,0,39.735,17.824,39.735,39.734v7.695
				C318.981,206.812,313.702,212.091,307.19,212.091z"/>
			<path d="M249.932,152.975c-5.81,0.731-10.307,5.679-10.307,11.687c0,6.008,4.497,10.956,10.307,11.687
				c5.81-0.731,10.307-5.679,10.307-11.687C260.239,158.654,255.742,153.706,249.932,152.975z"/>
		</g>
		<g>
			<g>
				<g>
					<path style="fill:#675AA6;" d="M177.415,109.83h70.172v25.201c0,0.225-0.119,0.359-0.218,0.432
						c-0.066,0.048-0.163,0.093-0.282,0.099c-0.04-0.003-0.081-0.008-0.125-0.022c-1.942-0.612-3.967-0.922-6.019-0.922
						c-0.013,0-0.025,0.001-0.038,0.001c-0.006,0-0.011-0.001-0.017-0.001c-5.688,0-11.13,2.431-14.929,6.669
						c-3.796,4.234-5.616,9.931-4.991,15.628c0.997,9.104,8.315,16.521,17.401,17.636c0.737,0.09,1.471,0.14,2.202,0.152
						c2.159,0.041,4.285-0.261,6.342-0.904c0.055-0.017,0.105-0.023,0.153-0.026c0.143,0.006,0.252,0.062,0.312,0.107
						c0.138,0.101,0.208,0.241,0.208,0.415v25.144h-25.144c-1.683,0-3.219,0.776-4.215,2.13c-0.63,0.857-0.975,1.881-1.017,2.926
						c-0.031,0.618,0.045,1.244,0.234,1.848c0.486,1.557,0.715,3.168,0.689,4.808c-0.011,0.546-0.049,1.096-0.117,1.648
						c-0.851,6.938-6.515,12.526-13.468,13.288c-4.432,0.487-8.681-0.87-11.967-3.815c-3.236-2.901-5.093-7.053-5.1-11.395
						c0.003-1.56,0.239-3.098,0.703-4.571c0.19-0.604,0.269-1.222,0.24-1.831c-0.038-1.027-0.38-2.028-1.013-2.891
						c-1-1.363-2.544-2.145-4.234-2.145h-25.2v-70.172C157.978,118.549,166.698,109.83,177.415,109.83z M316.389,199.166
						c0.073,0.1,0.207,0.218,0.432,0.218h25.146v-70.118c0-10.718-8.719-19.437-19.437-19.437h-70.172v25.201
						c0,1.691-0.782,3.235-2.145,4.235c-0.863,0.633-1.864,0.975-2.891,1.013c-0.608,0.029-1.226-0.05-1.831-0.24
						c-1.474-0.464-3.013-0.7-4.574-0.702c-4.34,0.008-8.491,1.865-11.391,5.099c-2.945,3.286-4.3,7.536-3.815,11.967
						c0.762,6.953,6.35,12.617,13.287,13.468c0.551,0.068,1.1,0.106,1.645,0.117c1.641,0.027,3.253-0.203,4.811-0.69
						c0.604-0.188,1.23-0.264,1.848-0.233c1.045,0.042,2.07,0.387,2.926,1.017c1.354,0.996,2.13,2.532,2.13,4.215v25.089h25.199
						c0.174,0,0.314-0.07,0.415-0.208c0.004-0.006,0.01-0.017,0.015-0.024c0.038-0.097,0.061-0.226,0.011-0.387
						c-0.854-2.738-1.107-5.594-0.751-8.49c0.281-2.292,0.965-4.469,1.974-6.463c2.974-5.967,8.867-10.297,15.716-11.047
						c5.697-0.626,11.395,1.196,15.629,4.991c4.238,3.799,6.669,9.241,6.669,14.929c0,2.049-0.31,4.074-0.922,6.018
						C316.247,198.911,316.319,199.07,316.389,199.166z M342.022,274.327V204.21h-25.255c-1.692,0-3.236-0.782-4.235-2.145
						c-0.997-1.359-1.279-3.061-0.772-4.668c0.467-1.483,0.703-3.031,0.703-4.602c0-4.35-1.859-8.511-5.101-11.418
						c-3.285-2.945-7.534-4.3-11.967-3.815c-5.194,0.569-9.667,3.833-11.954,8.34c-0.744,1.496-1.25,3.125-1.46,4.838
						c-0.273,2.227-0.081,4.417,0.574,6.511c0.439,1.408,0.268,2.937-0.449,4.201c-0.116,0.216-0.243,0.427-0.39,0.627
						c-0.996,1.353-2.532,2.129-4.214,2.129h-25.144v25.089c0,0.174,0.07,0.314,0.208,0.415c0.086,0.064,0.268,0.159,0.52,0.081
						c2.737-0.854,5.592-1.107,8.49-0.752c9.086,1.115,16.404,8.532,17.401,17.636c0.079,0.723,0.118,1.445,0.12,2.165
						c0.024,4.973-1.784,9.807-5.111,13.519c-3.8,4.238-9.241,6.669-14.929,6.669c-2.052,0-4.077-0.31-6.019-0.922
						c-0.207-0.065-0.364,0.006-0.461,0.077c-0.099,0.073-0.218,0.207-0.218,0.432v25.146h70.227
						C333.302,293.764,342.022,285.045,342.022,274.327z M157.978,274.382c0,10.718,8.719,19.437,19.437,19.437h70.227v-25.2v-0.055
						c0-1.691,0.782-3.234,2.145-4.234c1.359-0.997,3.059-1.279,4.667-0.773c1.484,0.467,3.032,0.704,4.603,0.704
						c4.35,0,8.511-1.859,11.418-5.101c2.57-2.868,3.928-6.469,3.909-10.285c-0.005-0.539-0.035-1.082-0.095-1.628
						c-0.761-6.953-6.349-12.617-13.287-13.468c-2.228-0.275-4.418-0.081-6.511,0.573c-1.607,0.502-3.371,0.209-4.719-0.783
						c-1.354-0.996-2.13-2.532-2.13-4.215v-0.055v-25.09h-25.198c-0.174,0-0.314,0.07-0.416,0.208
						c-0.044,0.06-0.1,0.169-0.106,0.312c0.003,0.048,0.009,0.098,0.026,0.153c0.641,2.053,0.943,4.174,0.904,6.328
						c-0.011,0.735-0.061,1.475-0.152,2.217c-1.115,9.086-8.531,16.404-17.636,17.401c-0.737,0.081-1.474,0.121-2.207,0.121
						c-4.94,0-9.734-1.807-13.422-5.112c-4.238-3.799-6.669-9.241-6.669-14.929c0-0.008,0.001-0.015,0.001-0.023
						c0-0.011-0.001-0.021-0.001-0.032c0-2.053,0.31-4.078,0.922-6.019c0.014-0.044,0.019-0.085,0.022-0.125
						c-0.005-0.119-0.051-0.216-0.099-0.282c-0.073-0.1-0.207-0.218-0.432-0.218h-25.201V274.382z"/>
					<g>
						<path style="fill:#564896;" d="M247.642,293.819v-25.2v-0.055c0-1.691,0.782-3.234,2.145-4.234
							c1.359-0.997,3.059-1.279,4.667-0.773c1.484,0.467,3.032,0.704,4.603,0.704c4.35,0,8.511-1.859,11.418-5.101
							c2.57-2.868,3.928-6.469,3.909-10.285c-0.005-0.539-0.035-1.082-0.095-1.628c-0.761-6.953-6.349-12.617-13.287-13.468
							c-2.228-0.275-4.418-0.081-6.511,0.573c-1.607,0.502-3.371,0.209-4.719-0.783c-0.971-0.714-1.639-1.709-1.942-2.835
							c-23.586,13.814-53.051,25.461-89.852,32.784v10.864c0,10.718,8.719,19.437,19.437,19.437H247.642z"/>
						<path style="fill:#564896;" d="M312.532,202.065c-0.997-1.359-1.279-3.061-0.772-4.668c0.467-1.483,0.703-3.031,0.703-4.602
							c0-4.35-1.859-8.511-5.101-11.418c-0.403-0.361-0.822-0.697-1.252-1.01c-12.833,16.456-30.222,33.125-53.752,47.644v1.288
							c0,0.174,0.07,0.314,0.208,0.415c0.086,0.064,0.268,0.159,0.52,0.081c2.736-0.854,5.592-1.107,8.49-0.752
							c9.086,1.115,16.404,8.532,17.401,17.636c0.079,0.723,0.118,1.445,0.12,2.165c0.024,4.973-1.784,9.807-5.111,13.519
							c-3.8,4.238-9.241,6.669-14.929,6.669c-2.052,0-4.077-0.31-6.019-0.922c-0.207-0.065-0.364,0.006-0.461,0.077
							c-0.099,0.073-0.218,0.207-0.218,0.432v25.146h70.227c10.717,0,19.437-8.719,19.437-19.437V204.21h-25.255
							C315.075,204.21,313.531,203.428,312.532,202.065z"/>
						<path style="fill:#564896;" d="M310.565,177.758c4.238,3.799,6.669,9.241,6.669,14.929c0,2.05-0.31,4.075-0.922,6.018
							c-0.065,0.207,0.006,0.365,0.077,0.462c0.073,0.1,0.207,0.218,0.432,0.218h25.146v-70.118c0-4.386-1.478-8.424-3.937-11.68
							c-4.126,14.892-12.44,36.538-28.998,58.932C309.561,176.905,310.074,177.317,310.565,177.758z"/>
					</g>
				</g>
				<g>
					<g>
						<path style="fill:#FC589B;" d="M202.81,222.227c-6.512,0-11.791-5.279-11.791-11.791v-27.831
							c0-21.909,17.825-39.734,39.734-39.734h7.695c6.512,0,11.791,5.279,11.791,11.791c0,6.512-5.279,11.791-11.791,11.791h-7.695
							c-8.907,0-16.153,7.246-16.153,16.152v27.831C214.601,216.948,209.322,222.227,202.81,222.227z"/>
						
							<ellipse transform="matrix(0.9305 -0.3663 0.3663 0.9305 -42.2363 76.5365)" style="fill:#FC589B;" cx="180.537" cy="149.551" rx="13.756" ry="13.756"/>
					</g>
					<g>
						<circle style="fill:#FFC209;" cx="197.758" cy="271.255" r="13.756"/>
						<path style="fill:#FFC209;" d="M258.584,260.832h-27.831c-21.91,0-39.734-17.824-39.734-39.734v-7.695
							c0-6.512,5.279-11.791,11.791-11.791c6.512,0,11.791,5.279,11.791,11.791v7.695c0,8.906,7.246,16.153,16.153,16.153h27.831
							c6.512,0,11.791,5.279,11.791,11.791C270.375,255.553,265.096,260.832,258.584,260.832z"/>
					</g>
					<g>
						<circle style="fill:#00B7E0;" cx="319.463" cy="254.034" r="13.756"/>
						<path style="fill:#00B7E0;" d="M269.246,260.832h-7.695c-6.512,0-11.791-5.279-11.791-11.791
							c0-6.512,5.279-11.791,11.791-11.791h7.695c8.907,0,16.154-7.246,16.154-16.153v-27.831c0-6.512,5.279-11.791,11.791-11.791
							c6.512,0,11.791,5.279,11.791,11.791v27.831C308.981,243.008,291.156,260.832,269.246,260.832z"/>
					</g>
					<g>
						
							<ellipse transform="matrix(0.8255 -0.5644 0.5644 0.8255 -21.943 193.6932)" style="fill:#FFFFFF;" cx="302.242" cy="132.33" rx="13.756" ry="13.756"/>
						<path style="fill:#FFFFFF;" d="M297.19,202.091c-6.512,0-11.791-5.279-11.791-11.791v-7.695
							c0-8.907-7.246-16.152-16.154-16.152h-27.83c-6.512,0-11.791-5.279-11.791-11.791c0-6.512,5.279-11.791,11.791-11.791h27.83
							c21.91,0,39.735,17.824,39.735,39.734v7.695C308.981,196.812,303.702,202.091,297.19,202.091z"/>
						<path style="fill:#FC589B;" d="M239.932,142.975c-5.81,0.731-10.307,5.679-10.307,11.687c0,6.008,4.497,10.956,10.307,11.687
							c5.81-0.731,10.307-5.679,10.307-11.687C250.239,148.654,245.742,143.706,239.932,142.975z"/>
					</g>
				</g>
			</g>
		</g>
	</g>
</g>
</svg>
