<?xml version="1.0" encoding="utf-8"?>
<!-- Generator: Adobe Illustrator 27.5.0, SVG Export Plug-In . SVG Version: 6.00 Build 0)  -->
<svg version="1.1" xmlns="http://www.w3.org/2000/svg" xmlns:xlink="http://www.w3.org/1999/xlink" x="0px" y="0px"
	 viewBox="0 0 3710 3710" style="enable-background:new 0 0 3710 3710;" xml:space="preserve">
<g id="Background">
	<g>
		<g>
			<rect style="fill:#FFFFFF;" width="3710" height="3710"/>
		</g>
	</g>
</g>
<g id="Illustration">
	<g>
		<path style="fill:#F4F7FA;" d="M670.877,596.675c-147.056,65.072-231.893,252.857-224.31,399.552
			c7.751,149.943,107.94,177.222,175.242,343.475c40.361,99.699,51.951,207.524-64.083,735.407
			c-115.922,527.366-164.401,572.916-120.186,696.08c80.818,225.13,320.538,381.095,535.832,435.676
			c444.119,112.593,637.598-243.427,1136.763-120.186c171.765,42.406,230.247,104.657,410.635,105.163
			c3.038,0.009,7.528,0.023,13.311-0.027c192.59-1.667,442.008-104.141,542.553-195.276
			c275.163-249.406-177.737-767.065,56.285-1487.622c86.038-264.916,189.335-324.503,152.574-491.659
			c-72.341-328.935-563.685-513.546-878.294-555.269c-375.046-49.737-733.447,72.484-774.162,86.789
			c-171.672,60.318-190.22,99.575-322.735,117.058C991.678,707.873,861.762,512.208,670.877,596.675z"/>
		<g>
			<g>
				<g>
					<defs>
						<path id="SVGID_1_" d="M1714.584,2945.956c-54.349-165.621-109.666-418.462-44.908-699.176
							c74.361-322.336,239.082-386.826,386.979-731.379c211.119-491.84-27.816-848.115,190.74-998.44
							c106.582-73.306,274.18-73.366,377.51,0.231c294.806,209.978,213.988,1124.59-253.752,1481.496
							c-211.544,161.418-396.142,142.269-554.888,351.148C1675.991,2534.407,1686.991,2777.901,1714.584,2945.956z"/>
					</defs>
					
						<linearGradient id="SVGID_00000157306912958093710070000000968385420850505869_" gradientUnits="userSpaceOnUse" x1="1851.9965" y1="611.3899" x2="2439.5896" y2="2481.0034">
						<stop  offset="0.0036" style="stop-color:#E38DDD"/>
						<stop  offset="1" style="stop-color:#9571F6"/>
					</linearGradient>
					
						<use xlink:href="#SVGID_1_"  style="overflow:visible;fill:url(#SVGID_00000157306912958093710070000000968385420850505869_);"/>
					<clipPath id="SVGID_00000059311620122855367530000008069296861079772072_">
						<use xlink:href="#SVGID_1_"  style="overflow:visible;"/>
					</clipPath>
					<g style="clip-path:url(#SVGID_00000059311620122855367530000008069296861079772072_);">
						<path style="fill:#FFFFFF;" d="M1680.491,2529.003l-3.416-0.869c17.779-69.888,41.694-138.575,71.076-204.156
							c67.557-150.791,142.008-233.615,236.269-338.473c61.277-68.168,130.73-145.432,210.951-256.153
							c150.058-207.106,196.61-279.823,238.234-396.811c82.408-231.643,69.751-439.31,54.873-542.483
							c-21.104-146.36-70.213-285.643-145.965-413.982l3.039-1.794c75.984,128.738,125.247,268.456,146.417,415.273
							c14.926,103.494,27.621,311.81-55.044,544.167c-41.771,117.407-88.408,190.271-238.699,397.697
							c-80.331,110.873-149.849,188.209-211.184,256.443c-94.052,104.63-168.342,187.273-235.673,337.557
							C1722.068,2390.815,1698.222,2459.312,1680.491,2529.003z"/>
						<path style="fill:#FFFFFF;" d="M2479,1168.292l-0.051-2.902c-3.022-170.771-112.162-281.291-203.182-343.935
							c-98.752-67.963-198.017-95.808-199.01-96.082l0.938-3.399c0.996,0.274,100.836,28.28,200.071,96.575
							c91.177,62.752,200.399,173.23,204.646,343.817c14.879-8.634,92.334-55.975,161.952-143.663
							c71.025-89.456,148.196-240.441,112.49-451.713l3.478-0.589c35.932,212.616-41.777,364.571-113.295,454.605
							c-77.466,97.525-164.615,145.431-165.484,145.903L2479,1168.292z"/>
						<path style="fill:#FFFFFF;" d="M2452.022,1716.393c-17.446,0-33.905-0.863-49.136-2.254
							c-95.753-8.754-164.348-39.809-165.029-40.123l-1.345-0.616l0.376-1.432c43.978-167.687,5.771-291.226-34.025-365.334
							c-43.102-80.257-97.208-121.364-97.749-121.771l2.115-2.82c0.548,0.409,55.273,41.988,98.738,122.923
							c39.984,74.452,78.38,198.385,34.709,366.443c10.035,4.354,74.834,31.222,162.654,39.229
							c87.751,8.006,217.126-1.737,335.11-93.57l2.163,2.783C2642.157,1696.478,2535.862,1716.393,2452.022,1716.393z"/>
						<path style="fill:#FFFFFF;" d="M2254.776,2036.499c-51.06,0-93.026-7.104-125.476-15.938
							c-80.156-21.825-121.266-58.718-121.674-59.089l-0.934-0.85l0.507-1.157c74.331-170.266-29.336-448.757-30.394-451.55
							l3.3-1.246c1.058,2.8,104.738,281.349,30.842,453.017c6.527,5.536,46.734,37.764,119.507,57.536
							c73.328,19.922,195.659,30.905,362.036-29.88l1.212,3.313C2399.867,2024.934,2319.923,2036.499,2254.776,2036.499z"/>
					</g>
				</g>
			</g>
			<g>
				<g>
					<defs>
						<path id="SVGID_00000044895878311186394330000002978195503018186650_" d="M1546.107,2686.301
							c-18.394-111.255-28.966-285.007,61.594-440.394c157.989-271.085,445.959-181.162,721.599-471.592
							c222.316-234.243,152.255-416.301,398.597-571.975c41.234-26.057,259.105-169.451,421.125-83.082
							c91.301,48.667,124.38,148.581,130.589,167.337c93.854,283.478-194.891,727.303-571.242,930.295
							c-216.229,116.626-285.991,78.512-666.504,214.532C1818.272,2511.348,1650.392,2614.269,1546.107,2686.301z"/>
					</defs>
					
						<linearGradient id="SVGID_00000169547521307850900130000012136244842010662045_" gradientUnits="userSpaceOnUse" x1="3161.7813" y1="5287.0322" x2="3053.6321" y2="4809.9014">
						<stop  offset="0" style="stop-color:#AA80F9"/>
						<stop  offset="0.9964" style="stop-color:#6165D7"/>
					</linearGradient>
					
						<use xlink:href="#SVGID_00000044895878311186394330000002978195503018186650_"  style="overflow:visible;fill:url(#SVGID_00000169547521307850900130000012136244842010662045_);"/>
					<clipPath id="SVGID_00000060743667596652537030000003890366058197431178_">
						<use xlink:href="#SVGID_00000044895878311186394330000002978195503018186650_"  style="overflow:visible;"/>
					</clipPath>
					<g style="clip-path:url(#SVGID_00000060743667596652537030000003890366058197431178_);">
						<path style="fill:#FFFFFF;" d="M1513.333,2820.061l-3.453-0.719c55.347-265.846,160.309-444.451,311.974-530.849
							c74.23-42.288,133.34-48.977,195.924-56.061c67.366-7.624,137.024-15.508,228.982-71.117
							c89.377-54.046,121.417-106.081,161.983-171.96c36.459-59.213,81.833-132.905,183.676-231.063
							c89.264-86.035,154.268-126.301,211.619-161.827c62.163-38.507,111.262-68.921,168.12-143.432
							c92.865-121.687,141.395-277.706,144.25-463.721l3.525,0.055c-2.865,186.785-51.638,343.506-144.972,465.806
							c-57.252,75.027-106.597,105.592-169.064,144.289c-57.204,35.433-122.036,75.595-211.03,161.37
							c-101.521,97.846-146.765,171.328-183.121,230.372c-40.816,66.286-73.051,118.641-163.157,173.13
							c-92.622,56.007-162.671,63.936-230.413,71.603c-62.214,7.041-120.975,13.691-194.575,55.619
							C1672.852,2377.434,1568.463,2555.249,1513.333,2820.061z"/>
						<path style="fill:#FFFFFF;" d="M2803.161,1615.634c-7.67,0-15.382-0.116-23.206-0.354l-2.358-0.072l0.739-2.242
							c1.222-3.712,120.643-372.972-15.433-525.662l2.635-2.345c39.683,44.529,82.343,136.761,60.205,323.283
							c-12.079,101.764-38.632,188.681-43.342,203.58c202.583,5.588,353.185-71.101,443.979-136.531
							c98.748-71.163,149.925-144.671,150.431-145.405l2.902,1.999c-0.506,0.739-52.035,74.75-151.273,146.266
							C3140.355,1541.631,2996.205,1615.634,2803.161,1615.634z"/>
						<path style="fill:#FFFFFF;" d="M2818.012,1930.122c-31.174,0-60.161-1.619-86.464-4.152
							c-141.399-13.615-237.299-55.865-238.251-56.29l-1.383-0.618l0.401-1.461c53.175-192.524,6.267-466.422,5.788-469.165
							l3.471-0.609c0.483,2.745,47.281,276.036-5.452,469.232c12.25,5.206,104.252,42.758,235.899,55.415
							c129.939,12.489,326.211,2.589,523.276-115.556l1.814,3.026C3099.067,1904.693,2941.52,1930.122,2818.012,1930.122z"/>
						<path style="fill:#FFFFFF;" d="M2650.409,2379.129c-184.795,0-327.563-39.046-416.354-72.75
							c-101.151-38.394-156.075-78.37-156.616-78.768l-1.496-1.1l1.177-1.438c146.19-178.458,89.254-473.334,88.662-476.293
							l3.457-0.691c0.151,0.743,14.851,75.453,11.182,171.344c-6.082,158.984-57.115,254.211-99.378,306.409
							c19.999,13.913,235.328,157.225,597.747,149.454l0.075,3.525C2669.279,2379.028,2659.781,2379.129,2650.409,2379.129z"/>
					</g>
				</g>
			</g>
			<g>
				
					<linearGradient id="SVGID_00000127723253405019538250000006360528781533866629_" gradientUnits="userSpaceOnUse" x1="40.5089" y1="1202.3048" x2="-1587.0635" y2="2539.2412" gradientTransform="matrix(0.9456 0.3251 -0.3251 0.9456 3271.104 1020.5929)">
					<stop  offset="0" style="stop-color:#FF9085"/>
					<stop  offset="1" style="stop-color:#FB6FBB"/>
				</linearGradient>
				<path style="fill:url(#SVGID_00000127723253405019538250000006360528781533866629_);" d="M1542.229,2591.795
					c61.874-44.468,163.147-108.829,299.366-157.12c242.289-85.894,353.323-35.22,455.892-137.651
					c106.172-106.028,37.402-210.459,164.516-328.861c10.688-9.955,147.173-133.801,270.648-87.684
					c86.379,32.262,120.011,130.384,135.793,176.422c61.247,178.681,25.635,450.942-164.989,585.235
					c-180.728,127.321-409.542,66.642-482.188,46.862c-127.446-34.702-157.65-84.375-287.212-115.788
					C1776.493,2535.008,1634.874,2563.307,1542.229,2591.795z"/>
			</g>
		</g>
		<g>
			<g>
				
					<linearGradient id="SVGID_00000145018088707378795990000014579236971528766621_" gradientUnits="userSpaceOnUse" x1="1529.1018" y1="3021.0432" x2="1349.4094" y2="3096.5139">
					<stop  offset="0" style="stop-color:#40447E"/>
					<stop  offset="0.9964" style="stop-color:#3C3B6B"/>
				</linearGradient>
				<path style="fill:url(#SVGID_00000145018088707378795990000014579236971528766621_);" d="M3007.119,2923.954L447.651,2903.01
					v61.969c0,16.82,11.164,31.122,26.283,33.67l723.741,122.029c8.589,1.448,17.299,1.832,25.966,1.146l1755.664-139.133
					c15.674-1.242,27.814-15.589,27.814-32.869V2923.954z"/>
				<g>
					
						<linearGradient id="SVGID_00000001651107389523184310000004013089601490083479_" gradientUnits="userSpaceOnUse" x1="1237.8453" y1="2271.8606" x2="1054.5125" y2="2348.8604">
						<stop  offset="0" style="stop-color:#40447E"/>
						<stop  offset="0.9964" style="stop-color:#3C3B6B"/>
					</linearGradient>
					<path style="fill:url(#SVGID_00000001651107389523184310000004013089601490083479_);" d="M2078.298,2823.498l-1604.18,113.366
						c-28.706,2.029-52.046-19.527-52.046-48.151V1741.915c0-28.624,23.34-51.829,52.046-51.829h1604.18
						c23.649,0,42.77,20.977,42.77,46.853v1036.684C2121.068,2799.498,2101.947,2821.826,2078.298,2823.498z"/>
					
						<linearGradient id="SVGID_00000109724686862933414470000013237525322032394408_" gradientUnits="userSpaceOnUse" x1="447.6509" y1="2313.541" x2="2146.6467" y2="2313.541">
						<stop  offset="0" style="stop-color:#40447E"/>
						<stop  offset="0.9964" style="stop-color:#3C3B6B"/>
					</linearGradient>
					<path style="fill:url(#SVGID_00000109724686862933414470000013237525322032394408_);" d="M2103.876,2823.498L499.697,2936.864
						c-28.707,2.029-52.046-19.527-52.046-48.151V1741.915c0-28.624,23.339-51.829,52.046-51.829h1604.179
						c23.65,0,42.771,20.977,42.771,46.853v1036.684C2146.647,2799.498,2127.526,2821.826,2103.876,2823.498z"/>
					
						<linearGradient id="SVGID_00000070828311973670242130000001615751990961529019_" gradientUnits="userSpaceOnUse" x1="1520.9471" y1="1901.7417" x2="218.8301" y2="4030.4211">
						<stop  offset="0" style="stop-color:#FFC444"/>
						<stop  offset="0.9964" style="stop-color:#F36F56"/>
					</linearGradient>
					<path style="fill:url(#SVGID_00000070828311973670242130000001615751990961529019_);" d="M2053.902,2750.41l-1494.126,98.473
						c-23.36,1.54-42.344-16.153-42.344-39.521V1805.339c0-23.368,18.984-42.39,42.344-42.487l1494.126-6.183
						c19.509-0.081,35.289,17.108,35.289,38.392v914.485C2089.191,2730.83,2073.411,2749.125,2053.902,2750.41z"/>
					<path style="fill:#FFFFFF;" d="M1358.442,1721.453c0,10.655-8.257,19.319-18.453,19.35
						c-10.209,0.031-18.493-8.601-18.493-19.281c0-10.68,8.285-19.343,18.493-19.35
						C1350.185,1702.164,1358.442,1710.797,1358.442,1721.453z"/>
					<path style="opacity:0.48;fill:#FFFFFF;" d="M1717.375,2508.971c-123.668-66.54-220.907,17.773-314.751-65.414
						c-56.894-50.434-28.961-88.043-98.968-163.411c-77.537-83.476-128.019-55.416-205.943-130.545
						c-98.53-94.996-49.251-168.904-134.122-237.108c-102.961-82.741-213.998-6.159-312.01-85.51
						c-42.273-34.225-65.467-83.981-77.579-136.897h-95.899c-16.805,0-30.452,13.62-30.452,30.422v1188.756
						c0,16.802,13.647,29.454,30.452,28.261l1634.922-116.05c8.023-0.569,15.138-5.254,19.704-12.045
						c-119.681-4.362-193.207-44.483-240.207-85.959C1800.577,2642.332,1816.525,2562.317,1717.375,2508.971z"/>
				</g>
				
					<linearGradient id="SVGID_00000058561670150409814010000014598796427158029743_" gradientUnits="userSpaceOnUse" x1="447.6509" y1="2941.823" x2="3007.1187" y2="2941.823">
					<stop  offset="0" style="stop-color:#40447E"/>
					<stop  offset="0.9964" style="stop-color:#3C3B6B"/>
				</linearGradient>
				<path style="fill:url(#SVGID_00000058561670150409814010000014598796427158029743_);" d="M2167.815,2818.357L447.651,2937.685
					l750.023,126.46c8.589,1.448,17.299,1.833,25.966,1.146l1783.478-141.337l-811.941-104.786
					C2186.097,2817.996,2176.939,2817.724,2167.815,2818.357z"/>
				
					<linearGradient id="SVGID_00000183934701161892310650000004564993193538968749_" gradientUnits="userSpaceOnUse" x1="698.6497" y1="2922.1196" x2="2573.9556" y2="2922.1196">
					<stop  offset="0" style="stop-color:#40447E"/>
					<stop  offset="0.9964" style="stop-color:#3C3B6B"/>
				</linearGradient>
				<polygon style="opacity:0.3;fill:url(#SVGID_00000183934701161892310650000004564993193538968749_);" points="698.65,2940.686 
					2130.737,2839.861 2573.956,2896.6 1154.205,3004.378 				"/>
			</g>
			
				<linearGradient id="SVGID_00000102542412868480036020000015985713861040789921_" gradientUnits="userSpaceOnUse" x1="1506.9125" y1="941.5392" x2="1170.446" y2="3556.157">
				<stop  offset="0" style="stop-color:#FFFFFF"/>
				<stop  offset="0.9964" style="stop-color:#EBEFF2"/>
			</linearGradient>
			<path style="fill:url(#SVGID_00000102542412868480036020000015985713861040789921_);" d="M2053.902,2663.482V755.519
				L767.298,710.433v2046.314c0,41.268-29.904,76.456-70.631,83.114h0l1270.494-83.735
				C2015.963,2752.91,2053.902,2712.389,2053.902,2663.482z"/>
			<g>
				<g>
					
						<linearGradient id="SVGID_00000158719148785063859850000005905919744087557044_" gradientUnits="userSpaceOnUse" x1="1158.8679" y1="663.9238" x2="1378.7804" y2="1924.3947">
						<stop  offset="0" style="stop-color:#FF9085"/>
						<stop  offset="1" style="stop-color:#FB6FBB"/>
					</linearGradient>
					<path style="fill:url(#SVGID_00000158719148785063859850000005905919744087557044_);" d="M1202.683,969.424l-81.635,300.525
						l-22.084-0.37L954.93,900.877c-6.593-17.404-13.305-27.799-20.125-31.191c-6.832-3.385-25.457-5.633-55.959-6.727v-5.666
						l224.02,8.098v5.606c-26.468-0.95-44.842-0.253-55.067,2.094c-10.246,2.349-15.368,7.489-15.368,15.418
						c0,4.179,1.309,9.245,3.927,15.173l102.196,264.582l58.959-214.503l-13.714-44.843c-5.212-16.858-11.507-27.089-18.895-30.688
						c-7.39-3.602-26.322-5.951-56.859-7.047v-5.605l220.233,7.961v5.546c-25.799-0.926-43.707-0.227-53.681,2.099
						c-9.983,2.329-14.974,7.831-14.974,16.505c0,4.539,0.849,9.119,2.558,13.716l82.245,261.936l69.703-189.721
						c7.082-19.851,10.628-36.133,10.628-48.839c0-34.823-25.235-53.139-75.888-54.957v-5.54l162.472,5.873v5.496
						c-29.624-1.063-51.578,13.072-65.813,42.429c-2.103,4.429-9.86,24.225-23.292,59.42l-103.879,285.758l-21.029-0.353
						L1202.683,969.424z"/>
				</g>
				<polygon style="opacity:0.39;fill:#A2A7AE;" points="1972.304,1747.583 878.847,1754.577 878.847,1347.297 1972.304,1361.418 
									"/>
				<polygon style="opacity:0.39;fill:#A2A7AE;" points="1972.304,2175.805 878.847,2206.214 878.847,1798.934 1972.304,1789.64 
									"/>
				<polygon style="opacity:0.39;fill:#A2A7AE;" points="1972.304,2609.594 878.847,2663.723 878.847,2256.443 1972.304,2223.429 
									"/>
				<polygon style="opacity:0.39;fill:#A2A7AE;" points="1571.161,1277.5 1972.304,1284.229 1972.304,890.975 1571.161,876.357 				
					"/>
			</g>
		</g>
		<g>
			
				<linearGradient id="SVGID_00000178893561662092039730000001087085601890430655_" gradientUnits="userSpaceOnUse" x1="2403.5105" y1="3037.4238" x2="2431.8547" y2="3547.6228">
				<stop  offset="0" style="stop-color:#444B8C"/>
				<stop  offset="0.9964" style="stop-color:#26264F"/>
			</linearGradient>
			<path style="fill:url(#SVGID_00000178893561662092039730000001087085601890430655_);" d="M2474.512,3218.842
				c0,0,3.544,28.204,1.166,37.652c-2.383,9.45-84.381,16.277-112.216,12.993c-27.833-3.284,16.58-31.717,34.314-37.051
				C2415.508,3227.099,2474.512,3218.842,2474.512,3218.842z"/>
			
				<linearGradient id="SVGID_00000074404586977253791790000005117460751761089174_" gradientUnits="userSpaceOnUse" x1="2457.0422" y1="3288.8567" x2="2441.9854" y2="2600.0173">
				<stop  offset="0" style="stop-color:#FFC444"/>
				<stop  offset="0.9964" style="stop-color:#F36F56"/>
			</linearGradient>
			<path style="fill:url(#SVGID_00000074404586977253791790000005117460751761089174_);" d="M2433.234,3171.794l8.643,56.584
				c0,0,22.039,9.905,32.635,0.116l1.166-59.227L2433.234,3171.794z"/>
			
				<linearGradient id="SVGID_00000159450458820766996590000000868289699098292647_" gradientUnits="userSpaceOnUse" x1="2916.5249" y1="3008.9324" x2="2944.8677" y2="3519.1089">
				<stop  offset="0" style="stop-color:#444B8C"/>
				<stop  offset="0.9964" style="stop-color:#26264F"/>
			</linearGradient>
			<path style="fill:url(#SVGID_00000159450458820766996590000000868289699098292647_);" d="M2895.495,3169.267
				c0,0-17.401,12.911-12.762,28.373c4.637,15.463,45.237,77.42,74.171,95.004c28.932,17.586,19.864-19.051,11.445-41.869
				c-8.421-22.819-29.937-73.083-38.335-81.508C2921.617,3160.844,2895.495,3169.267,2895.495,3169.267z"/>
			
				<linearGradient id="SVGID_00000157270230885713905640000005574154798170340280_" gradientUnits="userSpaceOnUse" x1="2908.7109" y1="3278.9849" x2="2893.6541" y2="2590.1416">
				<stop  offset="0" style="stop-color:#FFC444"/>
				<stop  offset="0.9964" style="stop-color:#F36F56"/>
			</linearGradient>
			<path style="fill:url(#SVGID_00000157270230885713905640000005574154798170340280_);" d="M2864.197,3107.103
				c8.411,23.444,16.501,42.719,22.829,56.934c13.998,31.454,21.652,43.256,30.315,53.487c7.559,8.912,25.449,27.929,30.257,24.762
				c4.885-3.209-8.207-26.33-33.431-94.044c-3.666-9.824-15.237-41.139-15.237-41.139l0,0H2864.197z"/>
			
				<linearGradient id="SVGID_00000039834570370404517710000015229218249434541210_" gradientUnits="userSpaceOnUse" x1="3024.636" y1="2243.9895" x2="2130.8125" y2="2811.8313">
				<stop  offset="0" style="stop-color:#311944"/>
				<stop  offset="1" style="stop-color:#A03976"/>
			</linearGradient>
			<path style="fill:url(#SVGID_00000039834570370404517710000015229218249434541210_);" d="M2261.51,2127.486
				c-6.001,58.928-11.759,150.39-3.151,261.393c11.219,144.621,40.139,236.137,76.404,390.34
				c22.165,94.236,52.029,232.936,79.053,406.401c6.271,3.589,24.719,13.025,48.472,9.503c13.297-1.976,23.245-7.26,29.118-11.063
				c70.908-216.672,49.965-350.944,15.745-434.598c-14.584-35.657-32.27-63.789-41.722-118.604
				c-12.51-72.521,2.958-113.061,25.012-281.045c15.719-119.73,12.998-138.239,2.539-156.194
				C2451.171,2121.829,2323.289,2123.231,2261.51,2127.486z"/>
			
				<linearGradient id="SVGID_00000090276805175316581670000008032537888205113782_" gradientUnits="userSpaceOnUse" x1="2450.8523" y1="2888.7908" x2="3120.8818" y2="2263.9324">
				<stop  offset="0" style="stop-color:#311944"/>
				<stop  offset="1" style="stop-color:#A03976"/>
			</linearGradient>
			<path style="fill:url(#SVGID_00000090276805175316581670000008032537888205113782_);" d="M2505.576,2152.684
				c43.438,224.327,86.073,342.148,118.335,408.789c7.957,16.433,34.504,69.458,59.598,145.474
				c22.217,67.287,31.475,116.783,36.217,138.57c14.976,68.763,51.987,169.165,151.58,300.852
				c1.241,0.732,18.224,10.335,34.458,1.773c8.216-4.336,12.313-11.246,13.941-14.466
				c-13.021-125.904-27.968-231.702-40.938-313.355c-2.726-17.126-14.712-92.052-33.512-191.044
				c-7.356-38.739-18.136-95.5-31.051-153.801c-16.077-72.601-40.734-171.373-78.731-289.726
				C2658.841,2174.724,2582.208,2163.708,2505.576,2152.684z"/>
			
				<linearGradient id="SVGID_00000048497337393800440970000013329111897020585148_" gradientUnits="userSpaceOnUse" x1="1887.4532" y1="1518.2335" x2="2627.332" y2="1451.5402">
				<stop  offset="0" style="stop-color:#FFC444"/>
				<stop  offset="0.9964" style="stop-color:#F36F56"/>
			</linearGradient>
			<path style="fill:url(#SVGID_00000048497337393800440970000013329111897020585148_);" d="M1815.238,1604.257
				c9.806-11.495,19.613-22.987,29.42-34.479c4.668,3.569,72.458,53.557,153.482,24.322c55.786-20.13,82.392-71.925,99.449-104.994
				c51.233-99.33,3.884-160.436,64.03-231.444c16.703-19.717,51.244-45.578,76.575-42.664
				c60.355,6.942,118.201,177.535,80.913,323.198c-7.526,29.4-48.969,191.286-188.858,227.595
				C2017.301,1795.111,1884.344,1731.099,1815.238,1604.257z"/>
			
				<linearGradient id="SVGID_00000060745674689057043860000002833198043214974907_" gradientUnits="userSpaceOnUse" x1="3290.7322" y1="2031.7057" x2="2634.2544" y2="1464.3209">
				<stop  offset="0" style="stop-color:#311944"/>
				<stop  offset="1" style="stop-color:#6B3976"/>
			</linearGradient>
			<path style="fill:url(#SVGID_00000060745674689057043860000002833198043214974907_);" d="M2468.573,1265.376
				c-24.636-22.772-71.766-49.022-95.404-110.046c-7.117-18.368-32.323-83.451,4.862-133.235
				c22.072-29.553,63.068-49.62,99.203-42.515c30.878,6.07,35.707,27.577,88.177,70.861c20.422,16.846,53.252,43.926,89.79,58.98
				c62.597,25.799,100.205,1.524,163.05,4.293c77.204,3.403,166.893,46.49,210.101,109.147
				c76.696,111.206-34.403,224.016,49.601,354.292c27.528,42.68,41.093,33.113,106.289,115.737
				c65.282,82.73,97.923,124.092,92.117,174.783c-8.063,70.351-83.838,137.554-155.194,142.12
				c-69.702,4.467-114.012-50.374-149.498-26.383c-25.259,17.065-10.817,50.273-37.642,90.175
				c-34.58,51.449-102.547,61.701-113.523,63.35c-101.885,15.37-239.259-104.101-297.606-245.642
				C2417.685,1636.053,2602.5,1389.173,2468.573,1265.376z"/>
			
				<linearGradient id="SVGID_00000005974466139520590140000002895509873326213819_" gradientUnits="userSpaceOnUse" x1="2274.832" y1="2868.3315" x2="2560.9111" y2="2484.3828">
				<stop  offset="0" style="stop-color:#311944"/>
				<stop  offset="1" style="stop-color:#6B3976"/>
			</linearGradient>
			<path style="opacity:0.3;fill:url(#SVGID_00000005974466139520590140000002895509873326213819_);" d="M2507.15,2749.461
				c-14.584-35.659-32.27-63.793-41.722-118.604c-12.51-72.521,2.958-113.061,25.012-281.045
				c15.719-119.73,12.998-138.239,2.539-156.194c-22.72-39.013-70.87-56.324-120.008-63.395c0.656,2.519,1.318,5.045,1.851,7.482
				c25.782,117.743-72.615,189.584-28.232,319.014c21.883,63.813,56.798,78.429,64.932,152.451
				c7.621,69.339-20.018,83.783-14.114,146.804c8.824,94.207,75.747,117.007,93.163,189.151
				c11.315,46.879,1.786,115.425-80.859,214.645c1.373,8.549,2.744,17.124,4.103,25.847c6.275,3.589,24.719,13.025,48.472,9.503
				c13.297-1.976,23.245-7.26,29.118-11.063C2562.313,2967.387,2541.371,2833.115,2507.15,2749.461z"/>
			
				<linearGradient id="SVGID_00000030480470592310545950000011401473202357222536_" gradientUnits="userSpaceOnUse" x1="2205.4673" y1="1831.9492" x2="2742.9026" y2="1831.9492" gradientTransform="matrix(0.9905 -0.1373 0.1373 0.9905 -620.2378 96.6064)">
				<stop  offset="0" style="stop-color:#FFC444"/>
				<stop  offset="0.9964" style="stop-color:#F36F56"/>
			</linearGradient>
			<path style="fill:url(#SVGID_00000030480470592310545950000011401473202357222536_);" d="M2248.406,1384.592
				c-93.582,97.575-59.811,255.154-123.295,272.182c-19.392,5.202-20.404-10.077-69.594-18.852
				c-71.944-12.836-101.149,14.254-151.933,3.964c-21.033-4.262-49.206-15.688-79.821-47.62c-2.842,3.331-5.685,6.661-8.525,9.992
				c69.106,126.842,202.063,190.854,315.01,161.535c139.889-36.31,181.332-198.196,188.858-227.595
				c17.495-68.346,14.046-142.182-0.781-202.024C2295.049,1346.614,2270.294,1361.77,2248.406,1384.592z"/>
			
				<linearGradient id="SVGID_00000076603815426621293990000009833166511592062143_" gradientUnits="userSpaceOnUse" x1="1919.3071" y1="1871.618" x2="2659.1853" y2="1804.9248">
				<stop  offset="0" style="stop-color:#FFC444"/>
				<stop  offset="0.9964" style="stop-color:#F36F56"/>
			</linearGradient>
			<path style="fill:url(#SVGID_00000076603815426621293990000009833166511592062143_);" d="M2170.819,1248.416
				c6.5-10.1,27.171-38.08,114.887-58.704c31.459-7.398,82.028-18.567,146.578-16.2c10.819,0.397,45.685,2.178,83.262,10.323
				c80.09,17.353,239.749,78.332,245.314,161.4c3.972,59.321-75.121,63.133-119.867,168.148
				c-32.601,76.509-32.39,172.085,3.176,246.433c28.543,59.669,79.039,104.461,117.387,138.489
				c57.522,51.028,87.313,58.869,106.597,104.588c21.001,49.785-0.162,74.061,25.919,108.143
				c28.008,36.602,60.825,19.588,108.299,56.602c48.631,37.913,31.326,69.116,75.582,111.016
				c64.31,60.873,149.56,41.102,153.528,68.494c3.416,23.561-57.173,55.533-108.649,68.496
				c-101.941,25.676-190.859-17.419-217.298-30.704c-73.206-36.778-60.561-60.581-116.376-88.622
				c-93.456-46.944-157.326,5.297-370.186,10.674c-115.271,2.918-173.557,3.575-205.49-35.425
				c-29.163-35.626-13.832-74.698,3.668-243.1c0,0,0-0.004,0.001-0.02c5.623-56.239,17.398-173.99,17.471-241.09
				c0.042-39.657-13.711-104.452-41.218-234.042c-1.624-7.641-16.509-77.652-28.538-171.178
				C2154.037,1297.915,2155.607,1272.055,2170.819,1248.416z"/>
			<g>
				
					<linearGradient id="SVGID_00000003095945560224294030000009864859858886466964_" gradientUnits="userSpaceOnUse" x1="2706.8835" y1="1187.1738" x2="2868.9985" y2="2178.5725">
					<stop  offset="0" style="stop-color:#FFC444"/>
					<stop  offset="0.9964" style="stop-color:#F36F56"/>
				</linearGradient>
				<path style="fill:url(#SVGID_00000003095945560224294030000009864859858886466964_);" d="M3077.953,2278.651
					c-44.256-41.899-26.948-73.103-75.582-111.014c-47.474-37.014-80.291-20.001-108.299-56.602
					c-26.081-34.082-4.918-58.358-25.919-108.142c-19.284-45.718-49.075-53.557-106.597-104.59
					c-38.348-34.027-88.844-78.82-117.388-138.487c-49.54-103.547-14.902-214.098-3.174-246.434
					c37.684-103.938,113.78-158.723,141.356-176.678c-2.656-2.86-131.479,111.824-134.828,108.393
					c-181.675,24.966-161.911,12.001-175.011,43.087c-30.283,71.852,17.659,98.253,18.896,305.483
					c0.588,99.054-10.094,138.166,22.043,179.509c36.758,47.284,79.117,32.652,132.268,94.477
					c40.841,47.498,34.301,77.614,72.436,97.626c41.005,21.514,67.123-3.563,113.373,6.301
					c77.267,16.477,93.785,105.568,144.865,154.311c38.627,36.858,110.042,62.627,250.889,34.967
					c3.257-4.743,4.832-9.373,4.202-13.712C3227.509,2319.755,3142.262,2339.525,3077.953,2278.651z"/>
			</g>
			
				<linearGradient id="SVGID_00000001650811418184642580000008751320805839018642_" gradientUnits="userSpaceOnUse" x1="2432.6482" y1="1210.587" x2="2607.6819" y2="956.5056">
				<stop  offset="0" style="stop-color:#FFC444"/>
				<stop  offset="0.9964" style="stop-color:#F36F56"/>
			</linearGradient>
			<path style="fill:url(#SVGID_00000001650811418184642580000008751320805839018642_);" d="M2456.578,1071.529
				c0,0,9.162,73.246,36.196,90.03c27.036,16.773,70.741,38.694,75.554,44.647c4.816,5.942-167.475,24.468-252.855-18.619l0,0
				c28.137-5.868,35.786-8.025,35.786-8.025c7.636-2.16,21.883-6.173,36.162-14.313c9.719-5.534,25.388-16.348,39.758-36.767
				l-0.314-40.557L2456.578,1071.529z"/>
			
				<linearGradient id="SVGID_00000176012175140316686650000012070915014468603553_" gradientUnits="userSpaceOnUse" x1="2416.7825" y1="1081.7111" x2="2693.4482" y2="915.1467">
				<stop  offset="0" style="stop-color:#FFC444"/>
				<stop  offset="0.9964" style="stop-color:#F36F56"/>
			</linearGradient>
			<path style="fill:url(#SVGID_00000176012175140316686650000012070915014468603553_);" d="M2460.69,1097.472
				c0,0-17.627,24.193-45.268,14.111c-24.753-9.028-9.981-72.954,9.653-80.247c6.548-2.43,18.573-1.356,26.611,3.66
				c5.655,3.526,20.751,22.281,12.098,43.298c6.253-1.811,11.756-0.167,13.133,2.931c1.752,3.927-3.545,9.276-4.741,10.487
				C2468.017,1095.913,2463.001,1097.088,2460.69,1097.472z"/>
			<g>
				
					<linearGradient id="SVGID_00000112621276118599133890000018358275660012973227_" gradientUnits="userSpaceOnUse" x1="3333.3618" y1="4440.7573" x2="3619.1096" y2="4621.1235" gradientTransform="matrix(0.4231 -0.9061 0.9061 0.4231 -3207.2727 2981.0581)">
					<stop  offset="0" style="stop-color:#AB316D"/>
					<stop  offset="1" style="stop-color:#792D3D"/>
				</linearGradient>
				<path style="fill:url(#SVGID_00000112621276118599133890000018358275660012973227_);" d="M3053.281,2096.119
					c-0.806,43.239-17.526,79.047-50.162,107.423l-1487.4-694.552l50.162-107.423L3053.281,2096.119z"/>
				
					<linearGradient id="SVGID_00000056425479921382973550000007480402395551670973_" gradientUnits="userSpaceOnUse" x1="3554.9995" y1="4459.3398" x2="3358.4084" y2="4487.7139" gradientTransform="matrix(0.4231 -0.9061 0.9061 0.4231 -3207.2727 2981.0581)">
					<stop  offset="0" style="stop-color:#AB316D"/>
					<stop  offset="1" style="stop-color:#792D3D"/>
				</linearGradient>
				<path style="fill:url(#SVGID_00000056425479921382973550000007480402395551670973_);" d="M3028.718,2175.236
					c8.59-12.391,14.931-25.833,19.019-40.326l-1497.719-699.371l-18.864,40.399L3028.718,2175.236z"/>
				
					<linearGradient id="SVGID_00000086687889770300734730000003587929181980814775_" gradientUnits="userSpaceOnUse" x1="3428.8391" y1="3282.2424" x2="3331.8364" y2="4249.8462" gradientTransform="matrix(0.4231 -0.9061 0.9061 0.4231 -3207.2727 2981.0581)">
					<stop  offset="0" style="stop-color:#FFC444"/>
					<stop  offset="0.9964" style="stop-color:#F36F56"/>
				</linearGradient>
				<path style="fill:url(#SVGID_00000086687889770300734730000003587929181980814775_);" d="M1565.881,1401.567
					c4.161,45.063-12.32,80.978-50.162,107.423l-313.247-207.443c-3.526-2.529-0.941-8.065,3.262-6.985L1565.881,1401.567z"/>
				
					<linearGradient id="SVGID_00000166638951041100412100000018029797747702867337_" gradientUnits="userSpaceOnUse" x1="3396.7107" y1="3197.6702" x2="3388.6042" y2="3546.2461" gradientTransform="matrix(0.4231 -0.9061 0.9061 0.4231 -3207.2727 2981.0581)">
					<stop  offset="0" style="stop-color:#AB316D"/>
					<stop  offset="1" style="stop-color:#792D3D"/>
				</linearGradient>
				<path style="fill:url(#SVGID_00000166638951041100412100000018029797747702867337_);" d="M1202.472,1301.548l121.769,80.64
					c11.052-13.622,18.213-28.97,21.551-46.011l-140.059-41.613C1201.531,1293.483,1198.946,1299.019,1202.472,1301.548z"/>
			</g>
			
				<linearGradient id="SVGID_00000047042466431194765700000016700567184484180147_" gradientUnits="userSpaceOnUse" x1="1824.6271" y1="1617.5533" x2="1911.8347" y2="2150.8628">
				<stop  offset="0" style="stop-color:#FFC444"/>
				<stop  offset="0.9964" style="stop-color:#F36F56"/>
			</linearGradient>
			<path style="fill:url(#SVGID_00000047042466431194765700000016700567184484180147_);" d="M1864.641,1667.061
				c0,0-46.99-42.105-63.832-67.367c-16.842-25.263-8.421,29.473,0,46.315C1809.23,1662.85,1869.527,1704.955,1864.641,1667.061z"/>
			
				<linearGradient id="SVGID_00000149376234668955662610000000828269842841934010_" gradientUnits="userSpaceOnUse" x1="2715.5967" y1="1851.4037" x2="2701.0073" y2="1257.4176">
				<stop  offset="0" style="stop-color:#FFC444"/>
				<stop  offset="0.9964" style="stop-color:#F36F56"/>
			</linearGradient>
			<path style="fill:url(#SVGID_00000149376234668955662610000000828269842841934010_);" d="M2640.851,1227.029
				c54.687,27.089,226.63,108.372,264.145,342.84s-162.565,356.392-162.565,356.392l-46.894-31.262
				c0,0,50.02-365.77-128.176-468.937C2389.166,1322.896,2640.851,1227.029,2640.851,1227.029z"/>
			
				<linearGradient id="SVGID_00000016061563603114558600000017486271486733498536_" gradientUnits="userSpaceOnUse" x1="2632.9229" y1="1896.3762" x2="2784.5457" y2="2007.3578">
				<stop  offset="0" style="stop-color:#FFC444"/>
				<stop  offset="0.9964" style="stop-color:#F36F56"/>
			</linearGradient>
			<path style="fill:url(#SVGID_00000016061563603114558600000017486271486733498536_);" d="M2706.625,1902.39
				c-11.087,1.987-17.34,11.366-42.35-1.139s-87.535,3.126-87.535,3.126s31.262,28.136,65.651,21.884
				c34.389-6.252,66.289,10.719,75.349,13.175c9.06,2.456,12.178-21.517,12.178-21.517L2706.625,1902.39z"/>
		</g>
	</g>
</g>
</svg>
